<?xml version="1.0" standalone="no"?>
<!DOCTYPE svg PUBLIC "-//W3C//DTD SVG 20010904//EN"
 "http://www.w3.org/TR/2001/REC-SVG-20010904/DTD/svg10.dtd">
<svg version="1.0" xmlns="http://www.w3.org/2000/svg"
 width="16.000000pt" height="16.000000pt" viewBox="0 0 16.000000 16.000000"
 preserveAspectRatio="xMidYMid meet">
<metadata>
Created by potrace 1.11, written by Peter Selinger 2001-2013
</metadata>
<g transform="translate(0.000000,16.000000) scale(0.002676,-0.002676)"
fill="#000000" stroke="none">
<path d="M2980 5975 c0 -5 -15 -26 -33 -45 -347 -374 -585 -805 -667 -1212
-30 -145 -35 -203 -34 -373 2 -219 18 -283 198 -778 175 -478 261 -740 280
-841 2 -11 9 -39 14 -61 10 -36 32 -158 47 -260 12 -84 20 -216 20 -360 l0
-150 -113 0 c-63 0 -117 2 -120 5 -9 7 -9 6 -16 140 -4 64 -8 127 -10 140 -2
14 -7 48 -11 75 -14 104 -17 123 -42 235 -14 63 -34 140 -45 170 -80 221 -122
309 -212 440 -55 81 -223 254 -256 265 -11 3 -20 10 -20 14 0 13 -173 99 -245
121 -187 57 -395 14 -575 -120 -167 -124 -266 -277 -316 -490 -24 -101 -24
-309 0 -400 40 -151 145 -310 266 -400 92 -70 264 -147 363 -164 15 -3 37 -8
49 -12 18 -5 20 -3 13 12 -28 64 -45 130 -48 180 -10 153 63 317 163 369 49
25 137 42 207 40 121 -4 217 -62 292 -174 47 -71 79 -138 102 -220 18 -62 36
-203 28 -218 -2 -5 -98 -8 -214 -8 l-210 0 -1 -238 c0 -163 3 -237 10 -238 6
-1 207 -2 446 -3 l435 -1 -2 -40 c-12 -199 -143 -386 -340 -490 l-53 -27 15
-35 c58 -137 208 -253 345 -266 l34 -3 18 -86 c32 -162 103 -303 219 -435 l28
-32 50 57 c83 95 164 248 186 352 10 47 26 117 31 131 3 12 16 17 43 17 52 1
156 49 210 98 44 39 107 126 129 177 11 26 10 28 -38 51 -172 83 -300 248
-335 431 -8 42 -15 82 -15 88 0 9 113 12 441 12 242 0 444 2 448 5 9 7 9 464
0 470 -4 3 -100 5 -213 5 -132 0 -206 3 -207 10 -10 74 29 243 81 349 81 165
194 253 337 261 178 11 303 -72 353 -233 35 -110 26 -256 -20 -342 -6 -12 -10
-23 -8 -26 10 -10 203 51 283 90 217 106 353 268 410 492 20 78 28 256 14 331
-5 26 -11 59 -14 73 -6 32 -37 121 -64 183 -59 137 -212 292 -360 367 -255
129 -513 90 -772 -116 -254 -202 -443 -583 -504 -1019 -9 -60 -18 -123 -20
-140 -3 -16 -7 -84 -11 -150 -4 -66 -8 -122 -11 -125 -7 -8 -235 -6 -240 3 -6
9 -4 250 2 288 2 13 6 62 9 109 10 125 31 255 68 410 11 47 21 94 24 106 8 43
136 417 219 644 198 535 216 594 233 750 12 117 6 336 -13 430 -2 14 -10 50
-16 80 -63 314 -256 712 -481 991 -135 168 -237 281 -238 264z"/>
</g>
</svg>
